<?xml version="1.0" standalone="no"?><!DOCTYPE svg PUBLIC "-//W3C//DTD SVG 1.1//EN" "http://www.w3.org/Graphics/SVG/1.1/DTD/svg11.dtd"><svg t="1505267804939" class="icon" style="" viewBox="0 0 1024 1024" version="1.1" xmlns="http://www.w3.org/2000/svg" p-id="2198" xmlns:xlink="http://www.w3.org/1999/xlink" width="200" height="200"><defs><style type="text/css"></style></defs><path d="M512.006652 63.791885c-247.569402 0-448.22648 200.660112-448.22648 448.219371 0 247.515257 200.658101 448.196859 448.22648 448.196859 247.524375 0 448.215223-200.681602 448.215223-448.196859C960.221875 264.451998 759.531027 63.791885 512.006652 63.791885zM687.308233 609.375771c10.723665 10.766205 10.723665 28.186969 0 38.954197l-38.955793 38.954197c-10.766646 10.766205-28.188124 10.766205-38.955793 0l-97.389995-97.387028-97.391018 97.387028c-10.767669 10.766205-28.188124 10.766205-38.955793 0l-38.955793-38.954197c-10.767669-10.767228-10.767669-28.187993 0-38.954197l97.389995-97.387028-97.389995-97.364515c-10.767669-10.767228-10.767669-28.209482 0-38.95522l38.955793-38.954197c10.767669-10.767228 28.188124-10.767228 38.955793 0l97.391018 97.387028 97.389995-97.387028c10.767669-10.767228 28.189148-10.767228 38.955793 0l38.955793 38.954197c10.723665 10.745738 10.723665 28.187993 0 38.95522l-97.389995 97.364515L687.308233 609.375771z" p-id="2199"></path></svg>